# xmcd CD database file
#
# Track frame offsets:
#	150
#	22541
#	34138
#	44095
#	63908
#	77799
#	97655
#	113816
#	127226
#	146667
#	161092
#
# Disc length: 2247 seconds
#
# Revision: 1
# Processed by: cddbd v1.5.2PL0 Copyright (c) Steve Scherf et al.
# Submitted via: CDex 2.18
#
DISCID=8d08c50b
DTITLE=Little Dan and his Wet Dogs - Last Coffee before the Wind takes us
DYEAR=2019
DGENRE=Blues
TTITLE0=All that glitters is not Gold
TTITLE1=She always complains
TTITLE2=Absolutely Fab'
TTITLE3=Eastern Memories
TTITLE4=Burn down the Flag
TTITLE5=Two-faced Daddy
TTITLE6=Jolly Holly
TTITLE7=I don't love You
TTITLE8=The Enchantress
TTITLE9=My Friends warned me
TTITLE10=Godmother of Rock'n'Roll
EXTD=YEAR: 2019
EXTT0=
EXTT1=
EXTT2=
EXTT3=
EXTT4=
EXTT5=
EXTT6=
EXTT7=
EXTT8=
EXTT9=
EXTT10=
PLAYORDER=
